<svg xmlns="http://www.w3.org/2000/svg" width="43.723" height="38.379" viewBox="0 0 43.723 38.379">
  <g id="noun-buy-3406377" transform="translate(-75.542 -46.48)">
    <path id="Path_9" data-name="Path 9" d="M127.255,54.809a2.18,2.18,0,0,0-1.749-.874H96.469l-1.334-5.752a2.176,2.176,0,0,0-2.163-1.7H86.207A2.209,2.209,0,0,0,84,48.689a2.28,2.28,0,0,0,2.209,2.255h5.016l4.1,17.579a8.07,8.07,0,0,0,7.869,6.258h13.575a8.069,8.069,0,0,0,7.823-6.074l3.083-11.965a2.394,2.394,0,0,0-.414-1.933Z" transform="translate(-8.456 0)" fill="#00b33c"/>
    <path id="Path_10" data-name="Path 10" d="M269.343,422.23a3.912,3.912,0,1,1-3.911-3.912,3.911,3.911,0,0,1,3.911,3.912" transform="translate(-171.39 -341.282)" fill="#00b33c"/>
    <path id="Path_11" data-name="Path 11" d="M446.863,422.23a3.912,3.912,0,1,1-3.911-3.912,3.911,3.911,0,0,1,3.911,3.912" transform="translate(-334.322 -341.282)" fill="#00b33c"/>
  </g>
</svg>
