<svg id="Component_23_1" data-name="Component 23 – 1" xmlns="http://www.w3.org/2000/svg" width="133" height="132" viewBox="0 0 133 132">
  <g id="box-svgrepo-com" transform="translate(0.064)">
    <ellipse id="Ellipse_48" data-name="Ellipse 48" cx="66.5" cy="66" rx="66.5" ry="66" transform="translate(-0.064)" fill="#898989"/>
    <path id="Path_411" data-name="Path 411" d="M168.829,227.551a63.766,63.766,0,0,0,59.687-63.632c0-.307-.007-.613-.012-.92l-29.624-29.624-20.246,36.7,1.932,1.932-46.085,21.2Z" transform="translate(-96.565 -96.762)" fill="#7a7a7a"/>
    <path id="Path_412" data-name="Path 412" d="M135.512,216.773h53.417a4.4,4.4,0,0,0,4.4-4.4v-45.64a4.4,4.4,0,0,0-4.4-4.4H135.512a4.4,4.4,0,0,0-4.4,4.4v45.64A4.4,4.4,0,0,0,135.512,216.773Z" transform="translate(-95.735 -120.029)" fill="#00b33c"/>
    <g id="Group_70" data-name="Group 70" transform="translate(31.489 34.348)">
      <path id="Path_413" data-name="Path 413" d="M281.6,162.335H254.852v55.057H281.6a4.4,4.4,0,0,0,4.359-4.449V166.784A4.4,4.4,0,0,0,281.6,162.335Z" transform="translate(-219.457 -154.558)" fill="#ed9e24"/>
      <path id="Path_414" data-name="Path 414" d="M183.464,146.667H117.931a2.422,2.422,0,0,1-2.429-2.415V133.528a2.422,2.422,0,0,1,2.429-2.415h65.533a2.422,2.422,0,0,1,2.429,2.415v10.723A2.423,2.423,0,0,1,183.464,146.667Z" transform="translate(-115.502 -131.113)" fill="#72b488"/>
    </g>
    <path id="Path_415" data-name="Path 415" d="M287.638,131.113H254.852v15.554h32.786a2.412,2.412,0,0,0,2.409-2.415V133.528A2.412,2.412,0,0,0,287.638,131.113Z" transform="translate(-188.168 -96.764)" fill="#ed9e24"/>
    <path id="Path_416" data-name="Path 416" d="M230.271,232.553h-13.9a3.889,3.889,0,0,1-3.889-3.889h0a3.889,3.889,0,0,1,3.889-3.889h13.9a3.889,3.889,0,0,1,3.889,3.889h0A3.889,3.889,0,0,1,230.271,232.553Z" transform="translate(-156.831 -167.205)" fill="#ed9e24"/>
    <path id="Path_417" data-name="Path 417" d="M262.088,224.778H254.85v7.777h7.238a3.889,3.889,0,0,0,3.889-3.889h0A3.889,3.889,0,0,0,262.088,224.778Z" transform="translate(-188.495 -167.207)" fill="#00b33c"/>
  </g>
</svg>
