<svg id="Component_25_1" data-name="Component 25 – 1" xmlns="http://www.w3.org/2000/svg" width="131" height="132" viewBox="0 0 131 132">
  <g id="Group_95" data-name="Group 95" transform="translate(-0.222)">
    <g id="Group_74" data-name="Group 74" transform="translate(0 0)">
      <g id="Group_73" data-name="Group 73" transform="translate(0)">
        <ellipse id="Ellipse_49" data-name="Ellipse 49" cx="65.5" cy="66" rx="65.5" ry="66" transform="translate(0.222)" fill="#929292"/>
      </g>
    </g>
    <path id="Path_428" data-name="Path 428" d="M152.833,91.389,130.549,68.431l-88.6,62.145L81.767,171.6a64.073,64.073,0,0,0,7.04.39c36.069,0,65.309-30.124,65.309-67.284A69.552,69.552,0,0,0,152.833,91.389Z" transform="translate(-23.762 -41.359)" fill="#7a7a7a"/>
    <g id="Group_76" data-name="Group 76" transform="translate(19.95 28.029)">
      <path id="Path_429" data-name="Path 429" d="M54.408,125.808H134.3a4.908,4.908,0,0,0,4.908-4.908V70.909A4.908,4.908,0,0,0,134.3,66H54.408A4.908,4.908,0,0,0,49.5,70.909V120.9A4.908,4.908,0,0,0,54.408,125.808Z" transform="translate(-49.5 -66)" fill="#00b33c"/>
    </g>
    <g id="Group_77" data-name="Group 77" transform="translate(63.788 28.029)">
      <path id="Path_430" data-name="Path 430" d="M189.037,66h-40.87v59.808h40.87a4.956,4.956,0,0,0,5-4.908V70.908A4.956,4.956,0,0,0,189.037,66Z" transform="translate(-148.167 -66)" fill="#006c24"/>
    </g>
    <g id="Group_78" data-name="Group 78" transform="translate(27.416 35.444)">
      <rect id="Rectangle_131" data-name="Rectangle 131" width="74.76" height="44.856" transform="translate(0 0)" fill="#fff"/>
    </g>
    <g id="Group_79" data-name="Group 79" transform="translate(63.983 35.444)">
      <rect id="Rectangle_132" data-name="Rectangle 132" width="37.531" height="44.856" transform="translate(0 0)" fill="#c9cacb"/>
    </g>
    <g id="Group_80" data-name="Group 80" transform="translate(14.13 79.376)">
      <path id="Path_431" data-name="Path 431" d="M46.335,196.452h74.6a13.564,13.564,0,0,0,13.335-13.782V181.5H33v1.17A13.564,13.564,0,0,0,46.335,196.452Z" transform="translate(-33 -181.5)" fill="#00b33c"/>
    </g>
    <g id="Group_81" data-name="Group 81" transform="translate(62.919 79.376)">
      <path id="Path_432" data-name="Path 432" d="M148.167,181.5v14.952h38.7A13.782,13.782,0,0,0,200.65,182.67V181.5Z" transform="translate(-148.167 -181.5)" fill="#006c24"/>
    </g>
  </g>
</svg>
