<svg id="Component_24_1" data-name="Component 24 – 1" xmlns="http://www.w3.org/2000/svg" width="131.51" height="131.186" viewBox="0 0 131.51 131.186">
  <g id="Group_98" data-name="Group 98" transform="translate(0)">
    <g id="Group_89" data-name="Group 89" transform="translate(0)">
      <g id="Group_73" data-name="Group 73">
        <circle id="Ellipse_49" data-name="Ellipse 49" cx="65.593" cy="65.593" r="65.593" fill="#929292"/>
      </g>
    </g>
    <path id="Path_443" data-name="Path 443" d="M182.719,121.438l-43.952,5.3L98.579,148.477l14.381,40.394q3.345.326,6.788.332c24.727,0,44.869-14.1,55.234-33.089,3.409-6.245,6.465-12.463,7.442-19.716a34.193,34.193,0,0,0,.3-4.515C182.719,128,183.528,125.107,182.719,121.438Z" transform="translate(-51.569 -58.195)" fill="#7a7a7a"/>
    <g id="login-svgrepo-com" transform="translate(35.547 29.393)">
      <path id="Path_418" data-name="Path 418" d="M171.483,5.945A20.275,20.275,0,0,0,157.094,0h-.12a20.574,20.574,0,0,0-20.3,20.631v5.057a1.1,1.1,0,0,0,1.1,1.1h5.855a1.1,1.1,0,0,0,1.1-1.1v-5.1a12.494,12.494,0,0,1,12.246-12.54,12.384,12.384,0,0,1,12.491,12.368V30.888a4.1,4.1,0,0,0,3.88,4.093l.148,0a4.025,4.025,0,0,0,4.023-4.025V20.419A20.276,20.276,0,0,0,171.483,5.945Z" transform="translate(-123.208 0)" fill="#bcbcbc"/>
      <g id="Group_71" data-name="Group 71" transform="translate(32.789 1.83)">
        <path id="Path_419" data-name="Path 419" d="M391.432,98.6a1.1,1.1,0,0,1-1.1-1.1V92.814a16.2,16.2,0,0,0-1.628-7.132,1.1,1.1,0,1,1,1.975-.959,18.376,18.376,0,0,1,1.849,8.091V97.5A1.1,1.1,0,0,1,391.432,98.6Z" transform="translate(-372.844 -74.224)" fill="#fff"/>
        <path id="Path_420" data-name="Path 420" d="M288.882,20.431a1.094,1.094,0,0,1-.774-.319,16.291,16.291,0,0,0-11.551-4.774,1.1,1.1,0,1,1,0-2.2,18.486,18.486,0,0,1,13.1,5.413,1.1,1.1,0,0,1-.774,1.876Z" transform="translate(-275.459 -13.142)" fill="#fff"/>
      </g>
      <path id="Path_421" data-name="Path 421" d="M141.679,214.472h-41.57a5.5,5.5,0,0,0-5.489,5.489V254.8a1.1,1.1,0,0,0,1.1,1.1H146.07a1.1,1.1,0,0,0,1.1-1.1V219.961A5.5,5.5,0,0,0,141.679,214.472Z" transform="translate(-87.009 -184.612)" fill="#00b33c"/>
      <path id="Path_422" data-name="Path 422" d="M100.109,214.472a5.5,5.5,0,0,0-5.489,5.489V254.8a1.1,1.1,0,0,0,1.1,1.1h25.176V214.472Z" transform="translate(-87.009 -184.612)" fill="#006c24"/>
      <path id="Path_423" data-name="Path 423" d="M213.372,258.72a7.538,7.538,0,1,0-3.966,0,11.653,11.653,0,0,0-9.654,11.464v5.855a1.1,1.1,0,0,0,1.1,1.1h21.078a1.1,1.1,0,0,0,1.1-1.1v-5.855A11.653,11.653,0,0,0,213.372,258.72Z" transform="translate(-177.503 -209.951)" fill="#f1b14f"/>
      <path id="Path_424" data-name="Path 424" d="M203.852,251.448a7.551,7.551,0,0,0,5.555,7.272,11.653,11.653,0,0,0-9.654,11.464v5.855a1.1,1.1,0,0,0,1.1,1.1H211.39V243.91A7.547,7.547,0,0,0,203.852,251.448Z" transform="translate(-177.504 -209.951)" fill="#ff8c29"/>
      <g id="Group_72" data-name="Group 72" transform="translate(0 17.783)">
        <path id="Path_425" data-name="Path 425" d="M45.6,177.5H41.049a1.1,1.1,0,1,1,0-2.2H45.6a1.1,1.1,0,1,1,0,2.2Z" transform="translate(-39.951 -168.681)" fill="#006c24"/>
        <path id="Path_426" data-name="Path 426" d="M64.974,132.819a1.094,1.094,0,0,1-.776-.322l-2.9-2.9a1.1,1.1,0,0,1,1.552-1.553l2.9,2.9a1.1,1.1,0,0,1-.776,1.874Z" transform="translate(-58.051 -127.725)" fill="#006c24"/>
        <path id="Path_427" data-name="Path 427" d="M61.864,207.162a1.1,1.1,0,0,1-.776-1.874l2.9-2.9a1.1,1.1,0,0,1,1.552,1.552l-2.9,2.9A1.094,1.094,0,0,1,61.864,207.162Z" transform="translate(-57.869 -191.718)" fill="#006c24"/>
      </g>
    </g>
  </g>
</svg>
