<svg id="Component_26_1" data-name="Component 26 – 1" xmlns="http://www.w3.org/2000/svg" width="131.239" height="131.186" viewBox="0 0 131.239 131.186">
  <g id="Group_96" data-name="Group 96" transform="translate(0)">
    <circle id="Ellipse_52" data-name="Ellipse 52" cx="65.593" cy="65.593" r="65.593" transform="translate(0)" fill="#929292"/>
    <path id="Path_437" data-name="Path 437" d="M265.65,97.487l-51.035-50.08-23.239,65.408-12.213,36.146,17.156,16.954a67.1,67.1,0,0,0,49.907-19.074A64.5,64.5,0,0,0,265.65,97.487Z" transform="translate(-134.488 -35.077)" fill="#7a7a7a"/>
    <path id="Path_438" data-name="Path 438" d="M206.946,223.6H178.775a8.108,8.108,0,0,1-8.108-8.107v-65.16a8.107,8.107,0,0,1,8.107-8.108h28.171a8.107,8.107,0,0,1,8.107,8.108v65.16A8.107,8.107,0,0,1,206.946,223.6Z" transform="translate(-127.068 -107.496)" fill="#00b33c"/>
    <path id="Path_439" data-name="Path 439" d="M270.229,142.222H256V223.6h14.229a8.149,8.149,0,0,0,8.19-8.107V150.33A8.148,8.148,0,0,0,270.229,142.222Z" transform="translate(-190.434 -107.494)" fill="#006c24"/>
    <rect id="Rectangle_133" data-name="Rectangle 133" width="36.316" height="24.659" transform="translate(47.633 44.781)" fill="#efb04f"/>
    <rect id="Rectangle_134" data-name="Rectangle 134" width="18.158" height="24.659" transform="translate(65.613 44.781)" fill="#ed9e24"/>
    <rect id="Rectangle_135" data-name="Rectangle 135" width="7.398" height="7.398" transform="translate(47.892 74.963)" fill="#efb04f"/>
    <rect id="Rectangle_136" data-name="Rectangle 136" width="7.398" height="7.398" transform="translate(57.359 74.963)" fill="#efb04f"/>
    <rect id="Rectangle_137" data-name="Rectangle 137" width="7.398" height="7.398" transform="translate(66.825 74.963)" fill="#ed9e24"/>
    <rect id="Rectangle_138" data-name="Rectangle 138" width="7.398" height="7.398" transform="translate(76.292 74.963)" fill="#ed9e24"/>
    <rect id="Rectangle_139" data-name="Rectangle 139" width="7.398" height="7.398" transform="translate(47.892 84.649)" fill="#efb04f"/>
    <rect id="Rectangle_140" data-name="Rectangle 140" width="7.398" height="7.398" transform="translate(57.359 84.649)" fill="#efb04f"/>
    <rect id="Rectangle_141" data-name="Rectangle 141" width="7.398" height="7.398" transform="translate(66.825 84.649)" fill="#ed9e24"/>
    <rect id="Rectangle_142" data-name="Rectangle 142" width="7.398" height="7.398" transform="translate(76.292 84.649)" fill="#ed9e24"/>
    <rect id="Rectangle_143" data-name="Rectangle 143" width="7.398" height="7.398" transform="translate(47.892 94.336)" fill="#efb04f"/>
    <rect id="Rectangle_144" data-name="Rectangle 144" width="7.398" height="7.398" transform="translate(57.359 94.336)" fill="#efb04f"/>
    <rect id="Rectangle_145" data-name="Rectangle 145" width="7.398" height="7.398" transform="translate(66.825 94.336)" fill="#ed9e24"/>
    <rect id="Rectangle_146" data-name="Rectangle 146" width="7.398" height="7.398" transform="translate(76.292 94.336)" fill="#ed9e24"/>
    <rect id="Rectangle_147" data-name="Rectangle 147" width="7.398" height="7.398" transform="translate(47.892 104.023)" fill="#efb04f"/>
    <rect id="Rectangle_148" data-name="Rectangle 148" width="7.398" height="7.398" transform="translate(57.359 104.023)" fill="#efb04f"/>
    <rect id="Rectangle_149" data-name="Rectangle 149" width="7.398" height="7.398" transform="translate(66.825 104.023)" fill="#ed9e24"/>
    <rect id="Rectangle_150" data-name="Rectangle 150" width="7.398" height="7.398" transform="translate(76.292 104.023)" fill="#ed9e24"/>
    <rect id="Rectangle_151" data-name="Rectangle 151" width="30.936" height="29.591" transform="translate(50.323 12.329)" fill="#fff"/>
    <rect id="Rectangle_152" data-name="Rectangle 152" width="15.468" height="29.591" transform="translate(65.643 12.329)" fill="#e6f3ff"/>
  </g>
</svg>
