<svg id="noun-print-2565451" xmlns="http://www.w3.org/2000/svg" width="82.912" height="82.912" viewBox="0 0 82.912 82.912">
  <path id="Path_4" data-name="Path 4" d="M111.456,0a41.456,41.456,0,1,0,41.456,41.456A41.458,41.458,0,0,0,111.456,0Zm26.4,51.571a2.078,2.078,0,0,1-2.073,2.032H135.7c-3.172-.124-6.218-.207-9.3-.3l-3.8-.114c.01,3.176.016,6.348-.047,9.529a2.066,2.066,0,0,1-2,2.031c-5.731.207-12.379.43-18.8.451h-.005a2.074,2.074,0,0,1-2.073-1.974c-.156-3.322-.264-6.586-.342-9.861-2.228.109-4.457.217-6.67.217-1.819,0-3.627-.052-5.415-.124a2.024,2.024,0,0,1-1.948-.446,2.091,2.091,0,0,1-.575-2.109c.088-2.488.145-4.949.2-7.41.052-2.29.1-4.586.182-6.9.1-2.612.264-6.97,3.311-9.581,2.373-2.031,5.565-2.171,8.079-2.073-.031-1.658-.01-3.3.124-4.975a2.073,2.073,0,0,1,1.954-1.9,194.052,194.052,0,0,1,25.23.093,2.074,2.074,0,0,1,1.917,1.917l.363,5.182c.394-.016.777-.031,1.15-.052,2.477-.114,7.576-.331,9.9,3.493a10.16,10.16,0,0,1,1.062,5.6c-.129,5.774-.238,11.515-.352,17.278Z" transform="translate(-70)" fill="#00b33c"/>
  <path id="Path_5" data-name="Path 5" d="M236.34,196.569c-.954.052-1.928.088-2.9.119-.072,0-.15,0-.223.005-.005,0-.005.005-.01.005-.052.005-.1.005-.156.005-.01,0-.026-.005-.036-.005-8.716.3-17.225.2-25.6-.28l-.949-.057c-2.694-.166-5.026-.2-6.441,1.016-1.549,1.327-1.772,3.98-1.871,6.586-.078,2.29-.13,4.571-.176,6.84-.041,1.913-.1,3.84-.16,5.768,3.415.1,6.871.063,10.343-.114-.01-.975-.01-1.948-.005-2.928-.534-.005-1.078,0-1.612-.01a2.07,2.07,0,0,1,.021-4.14h.021c8.561.078,17.252.031,25.823-.15h.047a2.073,2.073,0,0,1,.047,4.146c-.352.005-.71.005-1.068.01.021.964.036,1.922.047,2.887l3.939.114c2.4.067,4.793.13,7.229.217.1-5.063.2-10.1.316-15.152a6.933,6.933,0,0,0-.466-3.379c-.929-1.523-3.629-1.612-6.162-1.5Z" transform="translate(-178.897 -167.219)" fill="#00b33c"/>
  <path id="Path_6" data-name="Path 6" d="M298.255,151.087l-.223-3.192a190.707,190.707,0,0,0-21.065-.068c-.041,1.006.01,2.016.031,3.021,7.058.357,14.178.436,21.257.238Z" transform="translate(-246.311 -125.722)" fill="#00b33c"/>
  <path id="Path_7" data-name="Path 7" d="M297.824,312.225c-.757,0-1.508-.01-2.265-.01-.01,1.617-.031,3.239.01,4.851.047,3.3.171,6.56.316,9.867,5.011-.047,10.1-.2,14.711-.363.047-3.2.052-6.395.026-9.6-.016-1.622-.047-3.249-.083-4.877-4.234.062-8.472.135-12.716.135Z" transform="translate(-262.152 -265.883)" fill="#00b33c"/>
</svg>
