<svg id="Component_21_1" data-name="Component 21 – 1" xmlns="http://www.w3.org/2000/svg" width="116" height="116" viewBox="0 0 116 116">
  <g id="Group_14" data-name="Group 14" transform="translate(-808.093 -1016.281)">
    <g id="Group_8" data-name="Group 8" transform="translate(808.093 1016.281)">
      <g id="Group_7" data-name="Group 7">
        <g id="Group_6" data-name="Group 6">
          <ellipse id="Ellipse_27" data-name="Ellipse 27" cx="57.889" cy="57.889" rx="57.889" ry="57.889" fill="#929292"/>
        </g>
      </g>
    </g>
    <path id="Path_140" data-name="Path 140" d="M181.5,68.811,144.729,32.044c-5.484,8.631-9.064,18.171-13.55,27.518-1.172,2.734-3.906,5.468-4.3,8.2-3.151,19.221-9.14,38.654-18.34,54.85l12.847,12.847q1.372.064,2.759.067A58.04,58.04,0,0,0,181.5,68.811Z" transform="translate(741.944 996.753)" fill="#7a7a7a"/>
    <g id="Group_9" data-name="Group 9" transform="translate(845.512 1028.797)">
      <path id="Path_141" data-name="Path 141" d="M95.807,70.252l20.58,6.86,20.58-6.86V32.044H95.807Z" transform="translate(-95.807 -32.044)" fill="#00b33c"/>
    </g>
    <g id="Group_10" data-name="Group 10" transform="translate(844.034 1081.719)">
      <ellipse id="Ellipse_28" data-name="Ellipse 28" cx="22.059" cy="22.059" rx="22.059" ry="22.059" fill="#f1b14f"/>
    </g>
    <g id="Group_11" data-name="Group 11" transform="translate(851.387 1089.072)">
      <ellipse id="Ellipse_29" data-name="Ellipse 29" cx="14.706" cy="14.706" rx="14.706" ry="14.706" fill="#f5db91"/>
    </g>
    <g id="Group_12" data-name="Group 12" transform="translate(849.382 1073.865)">
      <path id="Path_142" data-name="Path 142" d="M109.892,155.791h25.067a4.178,4.178,0,0,0,4.178-4.178h0a4.178,4.178,0,0,0-4.178-4.178H109.892a4.177,4.177,0,0,0-4.178,4.178h0A4.177,4.177,0,0,0,109.892,155.791Z" transform="translate(-105.714 -147.436)" fill="#d0d5d9"/>
    </g>
  </g>
</svg>
