<svg id="Component_22_1" data-name="Component 22 – 1" xmlns="http://www.w3.org/2000/svg" width="116" height="116" viewBox="0 0 116 116">
  <g id="support-svgrepo-com">
    <path id="Path_157" data-name="Path 157" d="M58,0A57.956,57.956,0,1,1,0,57.956,57.978,57.978,0,0,1,58,0Z" fill="#929292"/>
    <path id="Path_143" data-name="Path 143" d="M206.176,188.839a57.982,57.982,0,0,0,27.985-45.521l-48.495-38.58-22.33,24.215-5.933,7.472,9.563,9.944-.956.707Z" transform="translate(-118.269 -81.079)" fill="#7a7a7a"/>
    <path id="Path_145" data-name="Path 145" d="M212.446,298.024v-6.308H201.069v6.308a.912.912,0,0,1-.911.911h-7.84V320.7H221.2V298.936h-7.84A.912.912,0,0,1,212.446,298.024Z" transform="translate(-148.713 -225.641)" fill="#fed8b2"/>
    <path id="Path_146" data-name="Path 146" d="M269.554,298.936h-7.84a.911.911,0,0,1-.911-.911v-6.308h-5.949V320.7h14.7V298.936h0Z" transform="translate(-197.069 -225.641)" fill="#eabe96"/>
    <ellipse id="Ellipse_32" data-name="Ellipse 32" cx="4.547" cy="4.547" rx="4.547" ry="4.547" transform="translate(34.587 48.337)" fill="#fed8b2"/>
    <ellipse id="Ellipse_33" data-name="Ellipse 33" cx="4.547" cy="4.547" rx="4.547" ry="4.547" transform="translate(71.439 48.337)" fill="#eabe96"/>
    <path id="Path_147" data-name="Path 147" d="M194.109,146.458h-1.024A17.159,17.159,0,0,1,175.926,129.3V113.633a17.159,17.159,0,0,1,17.159-17.159h1.024a17.159,17.159,0,0,1,17.159,17.159V129.3A17.159,17.159,0,0,1,194.109,146.458Z" transform="translate(-136.037 -74.629)" fill="#f4e3c3"/>
    <path id="Path_148" data-name="Path 148" d="M255.139,96.475h-.288v49.984h.288A17.159,17.159,0,0,0,272.3,129.3V113.634A17.159,17.159,0,0,0,255.139,96.475Z" transform="translate(-197.067 -74.63)" fill="#fed8b2"/>
    <path id="Path_149" data-name="Path 149" d="M204.241,94.969a18.6,18.6,0,0,0-15.254-7.941h-1.112a18.63,18.63,0,0,0-18.63,18.63v14.563h2.735v-7.7h0c8.3-.843,16.46-2.471,23.613-6.047a42.77,42.77,0,0,0,8.828,7.736v6.006h3.2V105.658A18.536,18.536,0,0,0,204.241,94.969Z" transform="translate(-130.871 -67.317)" fill="#f9b54c"/>
    <path id="Path_150" data-name="Path 150" d="M270.438,94.967a18.6,18.6,0,0,0-15.254-7.941h-.332V109.28a49.169,49.169,0,0,0,6.936-2.8,42.768,42.768,0,0,0,8.828,7.736v6.006h3.2V105.655A18.536,18.536,0,0,0,270.438,94.967Z" transform="translate(-197.068 -67.315)" fill="#f4a200"/>
    <ellipse id="Ellipse_34" data-name="Ellipse 34" cx="1.767" cy="1.767" rx="1.767" ry="1.767" transform="translate(47.463 49.101)" fill="#59595b"/>
    <ellipse id="Ellipse_35" data-name="Ellipse 35" cx="1.767" cy="1.767" rx="1.767" ry="1.767" transform="translate(64.122 49.101)" fill="#272525"/>
    <path id="Path_151" data-name="Path 151" d="M173.191,323.558h-6.053c0,5.317-4.31,6.571-9.626,6.571s-9.626-1.254-9.626-6.571h-6.053a13.2,13.2,0,0,0-13.2,13.2V358.6a58.116,58.116,0,0,0,57.759,0V336.758A13.2,13.2,0,0,0,173.191,323.558Z" transform="translate(-99.466 -250.285)" fill="#00b33c"/>
    <path id="Path_152" data-name="Path 152" d="M270.794,323.558h-6.053c0,5.317-4.31,6.571-9.626,6.571l-.26,0V366.28c.087,0,.173,0,.26,0a57.778,57.778,0,0,0,28.88-7.683V336.758A13.2,13.2,0,0,0,270.794,323.558Z" transform="translate(-197.069 -250.285)" fill="#006c24"/>
    <path id="Path_153" data-name="Path 153" d="M234.172,265.367a5.78,5.78,0,0,1-5.774-5.774.977.977,0,0,1,1.954,0,3.819,3.819,0,1,0,7.638,0,.977.977,0,0,1,1.954,0A5.779,5.779,0,0,1,234.172,265.367Z" transform="translate(-176.612 -200.026)" fill="#fd8469"/>
    <path id="Path_154" data-name="Path 154" d="M260.4,259.594a.977.977,0,0,0-1.955,0,3.82,3.82,0,0,1-3.6,3.808v1.954A5.776,5.776,0,0,0,260.4,259.594Z" transform="translate(-197.068 -200.027)" fill="#fc6f58"/>
    <g id="Group_13" data-name="Group 13" transform="translate(62.735 50.573)">
      <path id="Path_155" data-name="Path 155" d="M287.742,238.1h-6.628a.977.977,0,0,1,0-1.954h6.628a5.3,5.3,0,0,0,5.293-5.293v-6.629a.977.977,0,0,1,1.954,0v6.629A7.256,7.256,0,0,1,287.742,238.1Z" transform="translate(-279.354 -223.245)" fill="#324a5e"/>
      <path id="Path_156" data-name="Path 156" d="M281.769,279.733h-3.127a1.954,1.954,0,0,1,0-3.909h3.127a1.954,1.954,0,1,1,0,3.909Z" transform="translate(-276.688 -263.902)" fill="#324a5e"/>
    </g>
  </g>
</svg>
