<svg id="Component_19_1" data-name="Component 19 – 1" xmlns="http://www.w3.org/2000/svg" width="116" height="116" viewBox="0 0 116 116">
  <g id="paint-brush-art-svgrepo-com">
    <path id="Path_87" data-name="Path 87" d="M58,0a58,58,0,1,0,58,58A58,58,0,0,0,58,0Z" transform="translate(0 0)" fill="#929292"/>
    <path id="Path_88" data-name="Path 88" d="M173.734,151.62l-.764-.763.006-.006-.015,0L106.788,84.674l.006-.006-.661-.2-2.208-.661h0l.859,2.87-2.87-.859.859,2.87-2.87-.859.859,2.87-2.87-.859h0l.859,2.87-2.87-.859.859,2.87-.661-.2-2.207-.664h0l.859,2.87-2.87-.859.859,2.87-2.87-.859.859,2.87-2.87-.859.859,2.87-2.869-.86.859,2.87-2.87-.859.859,2.87,65.92,65.92,1.025,1.025a58.517,58.517,0,0,0,22.114-22.112Z" transform="translate(-65.258 -65.252)" fill="#7a7a7a"/>
    <path id="Path_89" data-name="Path 89" d="M181.407,201.907,185.3,205.8a4.621,4.621,0,0,0,6.535,0l1.023-1.023h0c1.627-1.627,5.167-2.187,6.623-.73s1.995,2.682,3.4,4.86a83.469,83.469,0,0,0,10.264,12.812c8.387,8.387,17.1,13.271,19.46,10.909s-2.523-11.075-10.909-19.46A83.526,83.526,0,0,0,208.881,202.9c-2.178-1.405-3.4-1.945-4.86-3.4s-.9-5,.73-6.623h0l1.023-1.023a4.621,4.621,0,0,0,0-6.535l-3.889-3.889-20.477,20.477ZM226,226.02a2.047,2.047,0,1,1,0-2.9,2.048,2.048,0,0,1,0,2.9Z" transform="translate(-140.453 -140.471)" fill="#00b33c"/>
    <path id="Path_90" data-name="Path 90" d="M226.406,191.666l31.457,31.457a2.047,2.047,0,1,1,2.9,2.9l6.605,6.605c2.362-2.362-2.523-11.075-10.91-19.46A83.519,83.519,0,0,0,243.642,202.9c-2.178-1.405-3.4-1.945-4.86-3.4s-.9-5,.731-6.623h0l1.023-1.023a4.621,4.621,0,0,0,0-6.535l-3.889-3.889-10.239,10.238Z" transform="translate(-175.237 -140.466)" fill="#006c24"/>
    <path id="Path_91" data-name="Path 91" d="M178.041,155.945l-22.111,22.11L144.271,166.4l22.111-22.11Z" transform="translate(-111.644 -111.656)" fill="#fff"/>
    <path id="Path_92" data-name="Path 92" d="M215.569,155.945,204.512,167l-11.657-11.659,11.055-11.055Z" transform="translate(-149.208 -111.632)" fill="#c9cacb"/>
    <path id="Path_93" data-name="Path 93" d="M103.93,83.814l.86,2.869-2.87-.859.859,2.87-2.87-.859.86,2.868-2.87-.859.859,2.87-2.87-.859.859,2.87-2.869-.86.859,2.87-2.87-.859.859,2.87-2.87-.86.86,2.87-2.87-.859.859,2.87-2.87-.859.86,2.869-2.87-.859.859,2.87,12.9,12.9,22.111-22.11-12.9-12.9,0-.006Z" transform="translate(-64.871 -64.862)" fill="#f1b14f"/>
    <path id="Path_94" data-name="Path 94" d="M140.922,84.673l-2.87-.859.86,2.869-2.87-.859.859,2.87-2.87-.859.86,2.868-2.87-.859.859,2.87-2.87-.859.859,2.87L128,93.866l0,.008,14.757,14.757,11.055-11.055-12.9-12.9Z" transform="translate(-99.037 -64.848)" fill="#ed9e24"/>
    <path id="Path_95" data-name="Path 95" d="M219.875,199.45l-20.441,20.44a4.576,4.576,0,0,0,1.8.984l19.627-19.627A4.563,4.563,0,0,0,219.875,199.45Z" transform="translate(-154.295 -154.307)" fill="#919191"/>
    <path id="Path_96" data-name="Path 96" d="M182.142,219.681l-11.055,11.055.99.99,11.055-11.055-.99-.99Zm-2.506-2.506L168.581,228.23l.99.99,11.055-11.055-.99-.99Z" transform="translate(-130.411 -168.003)" fill="#919191"/>
    <path id="Path_97" data-name="Path 97" d="M230.722,171.1l-11.055,11.055.99.99,11.055-11.055-.99-.99Zm-2.507-2.506L217.16,179.646l.99.99,11.055-11.055-.991-.99Z" transform="translate(-167.991 -130.419)" fill="#555"/>
  </g>
</svg>
