<svg id="Component_20_1" data-name="Component 20 – 1" xmlns="http://www.w3.org/2000/svg" width="113.899" height="116" viewBox="0 0 113.899 116">
  <g id="cash-register-buy-svgrepo-com">
    <path id="Path_98" data-name="Path 98" d="M56.949,0C88.4,0,113.9,25.968,113.9,58s-25.5,58-56.949,58S0,90.032,0,58,25.5,0,56.949,0Z" transform="translate(0)" fill="#929292"/>
    <path id="Path_99" data-name="Path 99" d="M45.485,180.422h71.086c1.974,0,4.866,2.313,5.671,4.651l8.35,24.21V223.4H30.684v-14.12l9.129-24.21C40.694,182.748,43.511,180.422,45.485,180.422Z" transform="translate(-23.695 -139.679)" fill="#ecf0f1"/>
    <path id="Path_100" data-name="Path 100" d="M80.644,321.252H30.685v-14.12H130.5v14.12H80.644Z" transform="translate(-23.696 -237.607)" fill="#e4e7ed"/>
    <g id="Group_1" data-name="Group 1" transform="translate(25.84 43.378)">
      <path id="Path_101" data-name="Path 101" d="M122.881,191.936h18.758c4.3,0,4.315,3.979,1.137,3.979H121.6c-3.152,0-2.7-3.979,1.266-3.979Z" transform="translate(-119.527 -191.936)" fill="#6c7678"/>
      <path id="Path_102" data-name="Path 102" d="M294.982,332.769h20.153a1.583,1.583,0,0,1,1.576,1.576h0a1.583,1.583,0,0,1-1.576,1.576H294.982a1.583,1.583,0,0,1-1.576-1.576h0A1.582,1.582,0,0,1,294.982,332.769Z" transform="translate(-253.802 -300.692)" fill="#6c7678"/>
    </g>
    <path id="Path_103" data-name="Path 103" d="M326.927,157.565h7.519v5.206h-7.519Z" transform="translate(-254.328 -121.88)" fill="#596366"/>
    <path id="Path_104" data-name="Path 104" d="M248.633,96.365h38.6a2.994,2.994,0,0,1,2.984,2.984v7.893a2.994,2.994,0,0,1-2.984,2.984h-38.6a2.994,2.994,0,0,1-2.984-2.984V99.349A2.994,2.994,0,0,1,248.633,96.365Z" transform="translate(-192.43 -74.551)" fill="#ecf0f1"/>
    <path id="Path_105" data-name="Path 105" d="M258.724,107.369h36.353a1.444,1.444,0,0,1,1.447,1.447v5.955a1.444,1.444,0,0,1-1.447,1.447H258.724a1.444,1.444,0,0,1-1.447-1.447v-5.955A1.444,1.444,0,0,1,258.724,107.369Z" transform="translate(-200.746 -83.057)" fill="#6b7f9e"/>
    <path id="Path_106" data-name="Path 106" d="M299.1,194.148h5.1a.866.866,0,0,1,.866.865v3.256a.866.866,0,0,1-.866.865h-5.1a.866.866,0,0,1-.866-.865v-3.256A.866.866,0,0,1,299.1,194.148Zm-8.914,0h5.1a.866.866,0,0,1,.865.865v3.256a.866.866,0,0,1-.865.865h-5.1a.866.866,0,0,1-.866-.865v-3.256A.866.866,0,0,1,290.188,194.148Zm17.815,0h5.1a.866.866,0,0,1,.865.865v3.256a.866.866,0,0,1-.865.865H308a.866.866,0,0,1-.866-.865v-3.256A.865.865,0,0,1,308,194.148Z" transform="translate(-225.381 -150.177)" fill="#6c7678"/>
    <g id="Group_2" data-name="Group 2" transform="translate(19.276 16.265)">
      <path id="Path_107" data-name="Path 107" d="M90.523,72.262l5.051,2.2,1.3-2.558,2.971,2.041,1.292-2,3.01,1.834,1.253-1.977,3,2.08.943-2.467,2.907,1.951,1.369-1.809c5.206,4.405,8.2,23.241,7.2,29.532H98.2c0-9.9-1.15-20.515-7.661-28.835Z" transform="translate(-90.523 -71.41)" fill="#00b33c"/>
      <path id="Path_108" data-name="Path 108" d="M350.66,116.516a1.3,1.3,0,0,1,.207-.711,1.484,1.484,0,0,1,.594-.53,2.061,2.061,0,0,1,.93-.194,2.469,2.469,0,0,1,.788.116,1.633,1.633,0,0,1,.569.323,1.423,1.423,0,0,1,.336.465,1.271,1.271,0,0,1,.1.543,1.161,1.161,0,0,1-.194.659,1.407,1.407,0,0,1-.568.478,1.53,1.53,0,0,1,.53.323,1.312,1.312,0,0,1,.323.465,1.452,1.452,0,0,1,.1.581,1.592,1.592,0,0,1-.233.853,1.623,1.623,0,0,1-.672.607,2.4,2.4,0,0,1-1.046.22,2.48,2.48,0,0,1-1.072-.22,1.592,1.592,0,0,1-.672-.594,1.614,1.614,0,0,1-.22-.853,1.377,1.377,0,0,1,.956-1.382,1.2,1.2,0,0,1-.775-1.137Zm2.687,2.48a1.037,1.037,0,0,0-.116-.5.842.842,0,0,0-.336-.336,1.022,1.022,0,0,0-.491-.116.909.909,0,0,0-.646.258.978.978,0,0,0-.258.711,1.091,1.091,0,0,0,.116.517.872.872,0,0,0,.336.349.956.956,0,0,0,.465.116.857.857,0,0,0,.478-.129.771.771,0,0,0,.323-.349,1.127,1.127,0,0,0,.116-.517Zm-.943-3.2a.753.753,0,0,0-.788.788.731.731,0,0,0,.22.53.771.771,0,0,0,.569.207.893.893,0,0,0,.323-.052.794.794,0,0,0,.246-.155.569.569,0,0,0,.155-.233.76.76,0,0,0,.052-.3.837.837,0,0,0-.1-.4.751.751,0,0,0-.284-.284.85.85,0,0,0-.413-.1h.026Zm3.514,4.922a.577.577,0,0,1-.4-.155.593.593,0,0,1,0-.827.568.568,0,0,1,.969.4.51.51,0,0,1-.168.413.57.57,0,0,1-.388.155Zm4.754-4.664H358.89l-.22,1.214a2.048,2.048,0,0,1,.982-.284,1.639,1.639,0,0,1,.672.129,1.767,1.767,0,0,1,.543.375,1.744,1.744,0,0,1,.375.569,1.808,1.808,0,0,1,.129.7,1.99,1.99,0,0,1-.246.995,1.935,1.935,0,0,1-.7.711,2.407,2.407,0,0,1-2.144.013,1.486,1.486,0,0,1-.594-.568,1.171,1.171,0,0,1-.168-.556.424.424,0,0,1,.116-.284.383.383,0,0,1,.31-.129.5.5,0,0,1,.465.362,1.267,1.267,0,0,0,.4.517.9.9,0,0,0,.568.181.833.833,0,0,0,.5-.155.974.974,0,0,0,.336-.413,1.434,1.434,0,0,0,.116-.594,1.331,1.331,0,0,0-.129-.62.9.9,0,0,0-.336-.388.979.979,0,0,0-.478-.129,1,1,0,0,0-.465.077c-.09.052-.22.142-.4.271a.759.759,0,0,1-.426.194.448.448,0,0,1-.323-.129.43.43,0,0,1-.142-.3c0-.013.013-.09.039-.258l.31-1.8a.869.869,0,0,1,.194-.465.592.592,0,0,1,.465-.142h1.977c.388,0,.581.155.581.452a.393.393,0,0,1-.142.31.632.632,0,0,1-.413.116Zm4.573,0h-1.783l-.22,1.214a2.048,2.048,0,0,1,.982-.284,1.639,1.639,0,0,1,.672.129,1.767,1.767,0,0,1,.542.375,1.74,1.74,0,0,1,.375.569,1.811,1.811,0,0,1,.129.7,1.991,1.991,0,0,1-.246.995,1.936,1.936,0,0,1-.7.711,2.407,2.407,0,0,1-2.144.013,1.486,1.486,0,0,1-.594-.568,1.171,1.171,0,0,1-.168-.556.424.424,0,0,1,.116-.284.383.383,0,0,1,.31-.129.5.5,0,0,1,.465.362,1.266,1.266,0,0,0,.4.517.9.9,0,0,0,.569.181.833.833,0,0,0,.5-.155.975.975,0,0,0,.336-.413,1.437,1.437,0,0,0,.116-.594,1.332,1.332,0,0,0-.129-.62.992.992,0,0,0-.336-.388.979.979,0,0,0-.478-.129,1,1,0,0,0-.465.077c-.09.052-.22.142-.4.271a.759.759,0,0,1-.426.194.466.466,0,0,1-.465-.426c0-.013.013-.09.039-.258l.31-1.8a.869.869,0,0,1,.194-.465.592.592,0,0,1,.465-.142h1.977c.388,0,.581.155.581.452a.393.393,0,0,1-.142.31.632.632,0,0,1-.413.116Z" transform="translate(-291.26 -105.135)" fill="#fff"/>
    </g>
    <path id="Path_109" data-name="Path 109" d="M30.685,369.125h99.908v1.951c-9.595,18.228-28.369,30.6-49.948,30.6S40.292,389.3,30.7,371.076v-1.951h-.013Z" transform="translate(-23.696 -285.681)" fill="#c6cbd6"/>
    <g id="Group_3" data-name="Group 3" transform="translate(24.261 49.597)">
      <path id="Path_110" data-name="Path 110" d="M112.757,387.389h67.281v13.487H112.757Z" transform="translate(-112.757 -349.382)" fill="#949494"/>
      <path id="Path_111" data-name="Path 111" d="M138.511,231.593c1.589,0,2.765.917,2.61,2.041s-1.576,2.041-3.165,2.041-2.765-.917-2.61-2.041S136.923,231.593,138.511,231.593ZM123.5,220.522c1.589,0,2.765.917,2.61,2.041s-1.576,2.041-3.165,2.041-2.765-.917-2.61-2.041S121.911,220.522,123.5,220.522Zm8.449,0c1.589,0,2.765.917,2.61,2.041s-1.576,2.041-3.165,2.041-2.765-.917-2.61-2.041S130.36,220.522,131.949,220.522Zm8.061,0c1.589,0,2.765.917,2.61,2.041s-1.576,2.041-3.165,2.041-2.765-.917-2.61-2.041S138.421,220.522,140.01,220.522Zm-.749,5.542c1.589,0,2.765.917,2.61,2.041s-1.576,2.041-3.165,2.041-2.765-.917-2.61-2.041S137.672,226.064,139.261,226.064Zm-8.061,0c1.589,0,2.765.917,2.61,2.041s-1.576,2.041-3.165,2.041-2.765-.917-2.61-2.041S129.611,226.064,131.2,226.064Zm-8.449,0c1.6,0,2.765.917,2.61,2.041s-1.576,2.041-3.165,2.041-2.765-.917-2.61-2.041S121.162,226.064,122.751,226.064ZM122,231.606c1.589,0,2.765.917,2.61,2.041s-1.576,2.041-3.165,2.041-2.765-.917-2.61-2.041S120.412,231.606,122,231.606Zm8.449,0c1.6,0,2.765.917,2.61,2.041s-1.576,2.041-3.165,2.041-2.765-.917-2.61-2.041S128.861,231.606,130.45,231.606Z" transform="translate(-117.441 -220.522)" fill="#6c7678"/>
      <path id="Path_112" data-name="Path 112" d="M288.347,230.789h1.369a1.125,1.125,0,0,1,1.124,1.124v1.369a1.125,1.125,0,0,1-1.124,1.124h-1.369a1.125,1.125,0,0,1-1.124-1.124v-1.369A1.125,1.125,0,0,1,288.347,230.789Z" transform="translate(-247.485 -228.45)" fill="#6c7678"/>
      <path id="Path_113" data-name="Path 113" d="M306.724,230.789h1.369a1.125,1.125,0,0,1,1.124,1.124v1.369a1.125,1.125,0,0,1-1.124,1.124h-1.369a1.125,1.125,0,0,1-1.124-1.124v-1.369A1.125,1.125,0,0,1,306.724,230.789Z" transform="translate(-261.676 -228.45)" fill="#6c7678"/>
      <path id="Path_114" data-name="Path 114" d="M288.347,249.789h1.369a1.125,1.125,0,0,1,1.124,1.124v1.369a1.125,1.125,0,0,1-1.124,1.124h-1.369a1.125,1.125,0,0,1-1.124-1.124v-1.369A1.125,1.125,0,0,1,288.347,249.789Z" transform="translate(-247.485 -243.123)" fill="#6c7678"/>
      <path id="Path_115" data-name="Path 115" d="M306.724,249.789h1.369a1.125,1.125,0,0,1,1.124,1.124v1.369a1.125,1.125,0,0,1-1.124,1.124h-1.369a1.125,1.125,0,0,1-1.124-1.124v-1.369A1.125,1.125,0,0,1,306.724,249.789Z" transform="translate(-261.676 -243.123)" fill="#6c7678"/>
      <path id="Path_116" data-name="Path 116" d="M288.347,268.847h1.369a1.125,1.125,0,0,1,1.124,1.124v1.369a1.125,1.125,0,0,1-1.124,1.124h-1.369a1.125,1.125,0,0,1-1.124-1.124v-1.369A1.125,1.125,0,0,1,288.347,268.847Z" transform="translate(-247.485 -257.84)" fill="#6c7678"/>
      <path id="Path_117" data-name="Path 117" d="M306.724,268.847h1.369a1.125,1.125,0,0,1,1.124,1.124v1.369a1.125,1.125,0,0,1-1.124,1.124h-1.369a1.125,1.125,0,0,1-1.124-1.124v-1.369A1.125,1.125,0,0,1,306.724,268.847Z" transform="translate(-261.676 -257.84)" fill="#6c7678"/>
      <path id="Path_118" data-name="Path 118" d="M288.347,287.848h1.369a1.125,1.125,0,0,1,1.124,1.124v1.369a1.125,1.125,0,0,1-1.124,1.124h-1.369a1.125,1.125,0,0,1-1.124-1.124v-1.369A1.125,1.125,0,0,1,288.347,287.848Z" transform="translate(-247.485 -272.513)" fill="#6c7678"/>
      <path id="Path_119" data-name="Path 119" d="M306.724,287.848h1.369a1.125,1.125,0,0,1,1.124,1.124v1.369a1.125,1.125,0,0,1-1.124,1.124h-1.369a1.125,1.125,0,0,1-1.124-1.124v-1.369A1.125,1.125,0,0,1,306.724,287.848Z" transform="translate(-261.676 -272.513)" fill="#6c7678"/>
      <path id="Path_120" data-name="Path 120" d="M342.06,230.789h1.369a1.125,1.125,0,0,1,1.124,1.124v1.369a1.125,1.125,0,0,1-1.124,1.124H342.06a1.125,1.125,0,0,1-1.124-1.124v-1.369A1.125,1.125,0,0,1,342.06,230.789Z" transform="translate(-288.964 -228.45)" fill="#6c7678"/>
      <path id="Path_121" data-name="Path 121" d="M360.493,230.789h1.369a1.125,1.125,0,0,1,1.124,1.124v1.369a1.125,1.125,0,0,1-1.124,1.124h-1.369a1.125,1.125,0,0,1-1.124-1.124v-1.369A1.125,1.125,0,0,1,360.493,230.789Z" transform="translate(-303.198 -228.45)" fill="#6c7678"/>
      <path id="Path_122" data-name="Path 122" d="M342.06,249.789h1.369a1.125,1.125,0,0,1,1.124,1.124v1.369a1.125,1.125,0,0,1-1.124,1.124H342.06a1.125,1.125,0,0,1-1.124-1.124v-1.369A1.125,1.125,0,0,1,342.06,249.789Z" transform="translate(-288.964 -243.123)" fill="#6c7678"/>
      <path id="Path_123" data-name="Path 123" d="M360.493,249.789h1.369a1.125,1.125,0,0,1,1.124,1.124v1.369a1.125,1.125,0,0,1-1.124,1.124h-1.369a1.125,1.125,0,0,1-1.124-1.124v-1.369A1.125,1.125,0,0,1,360.493,249.789Z" transform="translate(-303.198 -243.123)" fill="#6c7678"/>
      <path id="Path_124" data-name="Path 124" d="M342.06,268.847h1.369a1.125,1.125,0,0,1,1.124,1.124v1.369a1.125,1.125,0,0,1-1.124,1.124H342.06a1.125,1.125,0,0,1-1.124-1.124v-1.369A1.125,1.125,0,0,1,342.06,268.847Z" transform="translate(-288.964 -257.84)" fill="#6c7678"/>
      <path id="Path_125" data-name="Path 125" d="M360.493,268.847h1.369a1.125,1.125,0,0,1,1.124,1.124v1.369a1.125,1.125,0,0,1-1.124,1.124h-1.369a1.125,1.125,0,0,1-1.124-1.124v-1.369A1.125,1.125,0,0,1,360.493,268.847Z" transform="translate(-303.198 -257.84)" fill="#6c7678"/>
      <path id="Path_126" data-name="Path 126" d="M342.06,287.848h1.369a1.125,1.125,0,0,1,1.124,1.124v1.369a1.125,1.125,0,0,1-1.124,1.124H342.06a1.125,1.125,0,0,1-1.124-1.124v-1.369A1.125,1.125,0,0,1,342.06,287.848Z" transform="translate(-288.964 -272.513)" fill="#6c7678"/>
      <path id="Path_127" data-name="Path 127" d="M360.493,287.848h1.369a1.125,1.125,0,0,1,1.124,1.124v1.369a1.125,1.125,0,0,1-1.124,1.124h-1.369a1.125,1.125,0,0,1-1.124-1.124v-1.369A1.125,1.125,0,0,1,360.493,287.848Z" transform="translate(-303.198 -272.513)" fill="#6c7678"/>
    </g>
    <path id="Path_128" data-name="Path 128" d="M379.04,230.789h1.369a1.125,1.125,0,0,1,1.124,1.124v1.369a1.125,1.125,0,0,1-1.124,1.124H379.04a1.125,1.125,0,0,1-1.124-1.124v-1.369A1.125,1.125,0,0,1,379.04,230.789Z" transform="translate(-293.919 -178.516)" fill="#ffe356"/>
    <path id="Path_129" data-name="Path 129" d="M397.474,230.789h1.369a1.125,1.125,0,0,1,1.124,1.124v1.369a1.125,1.125,0,0,1-1.124,1.124h-1.369a1.125,1.125,0,0,1-1.124-1.124v-1.369A1.125,1.125,0,0,1,397.474,230.789Z" transform="translate(-308.256 -178.516)" fill="#ff7069"/>
    <g id="Group_4" data-name="Group 4" transform="translate(83.916 56.564)">
      <path id="Path_130" data-name="Path 130" d="M379.04,249.789h1.369a1.125,1.125,0,0,1,1.124,1.124v1.369a1.125,1.125,0,0,1-1.124,1.124H379.04a1.125,1.125,0,0,1-1.124-1.124v-1.369A1.125,1.125,0,0,1,379.04,249.789Z" transform="translate(-377.916 -249.789)" fill="#6c7678"/>
      <path id="Path_131" data-name="Path 131" d="M397.474,249.789h1.369a1.125,1.125,0,0,1,1.124,1.124v1.369a1.125,1.125,0,0,1-1.124,1.124h-1.369a1.125,1.125,0,0,1-1.124-1.124v-1.369A1.125,1.125,0,0,1,397.474,249.789Z" transform="translate(-392.151 -249.789)" fill="#6c7678"/>
      <path id="Path_132" data-name="Path 132" d="M379.04,268.847h1.369a1.125,1.125,0,0,1,1.124,1.124v1.369a1.125,1.125,0,0,1-1.124,1.124H379.04a1.125,1.125,0,0,1-1.124-1.124v-1.369A1.125,1.125,0,0,1,379.04,268.847Z" transform="translate(-377.916 -264.506)" fill="#6c7678"/>
    </g>
    <path id="Path_133" data-name="Path 133" d="M397.474,268.847h1.369a1.125,1.125,0,0,1,1.124,1.124v1.369a1.125,1.125,0,0,1-1.124,1.124h-1.369a1.125,1.125,0,0,1-1.124-1.124v-1.369A1.125,1.125,0,0,1,397.474,268.847Z" transform="translate(-308.256 -207.954)" fill="#83cf8f"/>
    <path id="Path_134" data-name="Path 134" d="M379.04,287.848h1.369a1.125,1.125,0,0,1,1.124,1.124v1.369a1.125,1.125,0,0,1-1.124,1.124H379.04a1.125,1.125,0,0,1-1.124-1.124v-1.369A1.125,1.125,0,0,1,379.04,287.848Z" transform="translate(-293.919 -222.651)" fill="#6c7678"/>
    <path id="Path_135" data-name="Path 135" d="M397.474,287.848h1.369a1.125,1.125,0,0,1,1.124,1.124v1.369a1.125,1.125,0,0,1-1.124,1.124h-1.369a1.125,1.125,0,0,1-1.124-1.124v-1.369A1.125,1.125,0,0,1,397.474,287.848Z" transform="translate(-308.256 -222.651)" fill="#83cf8f"/>
    <path id="Path_136" data-name="Path 136" d="M248.845,401.966a3.43,3.43,0,1,1-3.423,3.423A3.432,3.432,0,0,1,248.845,401.966Z" transform="translate(-190.914 -310.937)" fill="#fff"/>
    <g id="Group_5" data-name="Group 5" transform="translate(26.442 21.393)">
      <path id="Path_137" data-name="Path 137" d="M252.394,409.767a3.425,3.425,0,0,1-6.291,1.886,3.424,3.424,0,0,0,6.7-.995,3.381,3.381,0,0,0-.569-1.886,3.539,3.539,0,0,1,.142.982Z" transform="translate(-217.41 -337.403)" fill="#ecf0f1"/>
      <path id="Path_138" data-name="Path 138" d="M120.841,97.362l15.722-1.925a.619.619,0,0,1,.711.633h0a.844.844,0,0,1-.711.814l-15.722,1.925a.619.619,0,0,1-.711-.633h0A.844.844,0,0,1,120.841,97.362Zm2.881,17.957,15.709-.969a.673.673,0,0,1,.723.672h0a.773.773,0,0,1-.711.762l-15.709.969a.672.672,0,0,1-.723-.672h0A.773.773,0,0,1,123.721,115.319Zm-.233-4.289,15.722-1.511a.644.644,0,0,1,.711.659h0a.807.807,0,0,1-.711.788l-15.722,1.511a.644.644,0,0,1-.711-.659h0A.808.808,0,0,1,123.489,111.03Zm-.543-4.638,15.722-1.615a.635.635,0,0,1,.711.646h0a.831.831,0,0,1-.711.8l-15.722,1.615a.635.635,0,0,1-.711-.646h0A.831.831,0,0,1,122.946,106.392Zm-.672-4.844L138,99.83a.635.635,0,0,1,.711.646h0a.821.821,0,0,1-.711.8L122.275,103a.635.635,0,0,1-.711-.646h0A.82.82,0,0,1,122.275,101.548Z" transform="translate(-120.13 -95.431)" fill="#ecf0f1"/>
    </g>
    <path id="Path_139" data-name="Path 139" d="M100.222,459.195h68.231a54.335,54.335,0,0,1-68.219,0Z" transform="translate(-77.395 -355.235)" fill="#e4e7ed"/>
  </g>
</svg>
